<?xml version="1.0" encoding="UTF-8" standalone="no"?>
<!DOCTYPE svg  PUBLIC '-//W3C//DTD SVG 1.0//EN'  'http://www.w3.org/TR/2001/REC-SVG-20010904/DTD/svg10.dtd'>
<svg font-size="12" text-rendering="auto" color-rendering="auto" height="55" stroke="black" stroke-linecap="square" fill="black" shape-rendering="auto" width="50" stroke-miterlimit="10" image-rendering="auto" font-family="&apos;Dialog&apos;" xmlns="http://www.w3.org/2000/svg" xmlns:xlink="http://www.w3.org/1999/xlink" color-interpolation="auto"><!--Generated by the Batik Graphics2D SVG Generator-->
 <g stroke="#fff" transform="matrix(50,0,0,50,25,30)" fill="#fff">
  <path stroke="none" d="m-0.45 0l0.2-0.45h0.5l0.2 0.45-0.2 0.45h-0.5z"/>
 </g>
 <g stroke-width=".05" transform="matrix(50,0,0,50,25,30)">
  <path d="m-0.25-0.025v-0.425h0.5v0.425" fill="none"/>
  <path stroke-width=".025" d="m-0.0333-0.2667h0.0666m-0.0333 0v0.1334" fill="none"/>
  <path d="m0.25 0.025v0.425h-0.5v-0.425" fill="none"/>
  <path stroke-width=".025" d="m0.0333 0.1333h-0.0666v0.1334m0.0666-0.0667h-0.0666" fill="none"/>
  <line x2=".25" x1="-.25" fill="none"/>
  <path stroke-width=".1" d="m-0.45 0l0.2-0.45h0.5l0.2 0.45-0.2 0.45h-0.5z" fill="none"/>
  <text font-size=".5" xml:space="preserve" stroke="none" y="-0.6" x="0" stroke-width=".1"/>
 </g>
</svg>
