<?xml version="1.0" encoding="UTF-8" standalone="no"?>
<!-- Created with Inkscape (http://www.inkscape.org/) -->
<svg id="svg2888" xmlns:rdf="http://www.w3.org/1999/02/22-rdf-syntax-ns#" xmlns="http://www.w3.org/2000/svg" height="48px" width="48px" version="1.1" xmlns:cc="http://creativecommons.org/ns#" xmlns:dc="http://purl.org/dc/elements/1.1/">
 <metadata id="metadata2893">
  <rdf:RDF>
   <cc:Work rdf:about="">
    <dc:format>image/svg+xml</dc:format>
    <dc:type rdf:resource="http://purl.org/dc/dcmitype/StillImage"/>
    <dc:title/>
   </cc:Work>
  </rdf:RDF>
 </metadata>
 <g id="layer1">
  <g id="g2819">
   <path id="path3614" style="color:#000000" d="m6 18h9" stroke="#000" stroke-width="2" fill="none"/>
   <path id="path3616" style="color:#000000" d="m6 28h9" stroke="#000" stroke-width="2" fill="none"/>
   <path id="path3618" style="color:#000000" d="m35 23h8" stroke="#000" stroke-width="2" fill="none"/>
   <path id="path3620" style="color:#000000" d="m25 33v9" stroke="#000" stroke-width="2" fill="none"/>
   <rect id="rect3612" style="color:#000000" height="28" width="26" stroke="#000" y="8" x="12" stroke-width="2" fill="#fff"/>
   <path id="path3624" style="color:#000000" d="m5 19h2v-2h-2v2z" stroke="#000" stroke-width="2"/>
   <path id="path3624-1" style="color:#000000" d="m5 29h2v-2h-2v2z" stroke="#000" stroke-width="2"/>
   <path id="path3624-4" style="color:#000000" d="m24 43h2v-2h-2v2z" stroke="#000" stroke-width="2"/>
   <path id="path3624-9" style="color:#000000" d="m43 24h2v-2h-2v2z" stroke="#000" stroke-width="2"/>
   <g id="text2842" style="block-progression:tb;text-indent:0;color:#000000;text-transform:none" transform="scale(.96268 1.0388)">
    <path id="path2847" d="m18.785 17.787h1.5218l-0.12594 0.63496h-1.5271l-1.4431 6.6697h-0.87111l1.4378-6.6697h-1.1597l0.13119-0.63496h1.1545l0.24664-1.1072c0.27287-1.2279 0.91308-1.8419 1.9206-1.8419 0.2134 0.00001 0.62971 0.05773 1.2489 0.17317l-0.15218 0.72417c-0.41982-0.09445-0.76966-0.14168-1.0495-0.14169-0.57724 0.00001-0.93933 0.34635-1.0863 1.039z"/>
    <path id="path2849" d="m24.431 14.838h0.61922c-2.2985 2.5504-3.4477 5.3578-3.4477 8.4224-0.000002 1.7772 0.28862 3.376 0.86586 4.7963h-0.6507c-0.71018-1.7282-1.0653-3.3427-1.0653-4.8436-0.000001-1.5393 0.32972-3.0585 0.98918-4.5576 0.65945-1.4991 1.5559-2.7716 2.6894-3.8176z"/>
    <path id="path2851" d="m25.297 17.787h1.0075l1.632 2.9387 2.6343-2.9387h1.0075l-3.2745 3.6104 2.0413 3.6943h-0.96032l-1.6792-2.9964-2.6973 2.9964h-0.99705l3.3217-3.6943z"/>
    <path id="path2853" d="m31.169 28.057h-0.61922c2.302-2.5573 3.4529-5.3683 3.4529-8.4329-0.000003-1.7562-0.28687-3.3515-0.86061-4.7858h0.64021c0.71018 1.7282 1.0653 3.3427 1.0653 4.8436-0.000004 1.5358-0.32973 3.0532-0.98918 4.5523s-1.5559 2.7734-2.6894 3.8229z"/>
   </g>
  </g>
 </g>
</svg>
