<?xml version="1.0" encoding="UTF-8" standalone="no"?>
<!-- Created with Inkscape (http://www.inkscape.org/) -->

<svg
   xmlns:osb="http://www.openswatchbook.org/uri/2009/osb"
   xmlns:dc="http://purl.org/dc/elements/1.1/"
   xmlns:cc="http://creativecommons.org/ns#"
   xmlns:rdf="http://www.w3.org/1999/02/22-rdf-syntax-ns#"
   xmlns:svg="http://www.w3.org/2000/svg"
   xmlns="http://www.w3.org/2000/svg"
   xmlns:sodipodi="http://sodipodi.sourceforge.net/DTD/sodipodi-0.dtd"
   xmlns:inkscape="http://www.inkscape.org/namespaces/inkscape"
   width="48px"
   height="48px"
   id="svg2888"
   version="1.1"
   inkscape:version="0.48.3.1 r9886"
   sodipodi:docname="selection-unbundle.svg"
   inkscape:export-filename="/home/mech/workspace/Workcraft/images/icons/signal_transition22.png"
   inkscape:export-xdpi="41.25"
   inkscape:export-ydpi="41.25">
  <sodipodi:namedview
     id="base"
     pagecolor="#ffffff"
     bordercolor="#666666"
     borderopacity="1.0"
     inkscape:pageopacity="0.0"
     inkscape:pageshadow="2"
     inkscape:zoom="16"
     inkscape:cx="20.83774"
     inkscape:cy="22.255695"
     inkscape:current-layer="layer1"
     showgrid="true"
     inkscape:grid-bbox="true"
     inkscape:document-units="px"
     inkscape:window-width="1920"
     inkscape:window-height="1150"
     inkscape:window-x="0"
     inkscape:window-y="0"
     inkscape:window-maximized="1"
     inkscape:snap-bbox="true"
     inkscape:snap-global="true"
     inkscape:bbox-nodes="true"
     inkscape:object-nodes="true"
     inkscape:snap-object-midpoints="true"
     inkscape:snap-page="true" />
  <defs
     id="defs2890">
    <marker
       style="overflow:visible"
       id="StopM"
       refX="0.0"
       refY="0.0"
       orient="auto"
       inkscape:stockid="StopM">
      <path
         transform="scale(0.4)"
         style="fill:none;fill-opacity:0.75000000;fill-rule:evenodd;stroke:#000000;stroke-width:1.0pt"
         d="M 0.0,5.65 L 0.0,-5.65"
         id="path4137" />
    </marker>
    <marker
       style="overflow:visible"
       id="StopL"
       refX="0.0"
       refY="0.0"
       orient="auto"
       inkscape:stockid="StopL">
      <path
         transform="scale(0.8)"
         style="fill:none;fill-opacity:0.75000000;fill-rule:evenodd;stroke:#000000;stroke-width:1.0pt"
         d="M 0.0,5.65 L 0.0,-5.65"
         id="path4134" />
    </marker>
    <marker
       inkscape:stockid="DotS"
       orient="auto"
       refY="0.0"
       refX="0.0"
       id="DotS"
       style="overflow:visible">
      <path
         id="path3921"
         d="M -2.5,-1.0 C -2.5,1.7600000 -4.7400000,4.0 -7.5,4.0 C -10.260000,4.0 -12.5,1.7600000 -12.5,-1.0 C -12.5,-3.7600000 -10.260000,-6.0 -7.5,-6.0 C -4.7400000,-6.0 -2.5,-3.7600000 -2.5,-1.0 z "
         style="fill-rule:evenodd;stroke:#000000;stroke-width:1.0pt"
         transform="scale(0.2) translate(7.4, 1)" />
    </marker>
    <linearGradient
       id="linearGradient3788"
       osb:paint="solid">
      <stop
         style="stop-color:#000000;stop-opacity:1;"
         offset="0"
         id="stop3790" />
    </linearGradient>
    <linearGradient
       id="linearGradient3754"
       osb:paint="solid">
      <stop
         style="stop-color:#ffffff;stop-opacity:1;"
         offset="0"
         id="stop3756" />
    </linearGradient>
    <inkscape:perspective
       sodipodi:type="inkscape:persp3d"
       inkscape:vp_x="0 : 24 : 1"
       inkscape:vp_y="0 : 1000 : 0"
       inkscape:vp_z="48 : 24 : 1"
       inkscape:persp3d-origin="24 : 16 : 1"
       id="perspective2896" />
    <inkscape:perspective
       id="perspective2835"
       inkscape:persp3d-origin="0.5 : 0.33333333 : 1"
       inkscape:vp_z="1 : 0.5 : 1"
       inkscape:vp_y="0 : 1000 : 0"
       inkscape:vp_x="0 : 0.5 : 1"
       sodipodi:type="inkscape:persp3d" />
    <marker
       inkscape:stockid="DotSa"
       orient="auto"
       refY="0.0"
       refX="0.0"
       id="DotSa"
       style="overflow:visible">
      <path
         id="path3779"
         d="M -2.5,-1.0 C -2.5,1.7600000 -4.7400000,4.0 -7.5,4.0 C -10.260000,4.0 -12.5,1.7600000 -12.5,-1.0 C -12.5,-3.7600000 -10.260000,-6.0 -7.5,-6.0 C -4.7400000,-6.0 -2.5,-3.7600000 -2.5,-1.0 z "
         style="stroke:#c80000;stroke-width:1.0pt;fill:#c80000;fill-rule:evenodd"
         transform="scale(0.2) translate(7.4, 1)" />
    </marker>
    <marker
       inkscape:stockid="DotSP"
       orient="auto"
       refY="0.0"
       refX="0.0"
       id="DotSP"
       style="overflow:visible">
      <path
         id="path3782"
         d="M -2.5,-1.0 C -2.5,1.7600000 -4.7400000,4.0 -7.5,4.0 C -10.260000,4.0 -12.5,1.7600000 -12.5,-1.0 C -12.5,-3.7600000 -10.260000,-6.0 -7.5,-6.0 C -4.7400000,-6.0 -2.5,-3.7600000 -2.5,-1.0 z "
         style="stroke:#c80000;stroke-width:1.0pt;fill:#c80000;fill-rule:evenodd"
         transform="scale(0.2) translate(7.4, 1)" />
    </marker>
    <marker
       inkscape:stockid="DotSa"
       orient="auto"
       refY="0"
       refX="0"
       id="DotSa-3"
       style="overflow:visible">
      <path
         id="path3779-0"
         d="m -2.5,-1 c 0,2.76 -2.24,5 -5,5 -2.76,0 -5,-2.24 -5,-5 0,-2.76 2.24,-5 5,-5 2.76,0 5,2.24 5,5 z"
         style="fill:#c80000;fill-rule:evenodd;stroke:#c80000;stroke-width:1pt"
         transform="matrix(0.2,0,0,0.2,1.48,0.2)"
         inkscape:connector-curvature="0" />
    </marker>
    <marker
       inkscape:stockid="DotSP"
       orient="auto"
       refY="0"
       refX="0"
       id="DotSP-8"
       style="overflow:visible">
      <path
         id="path3782-4"
         d="m -2.5,-1 c 0,2.76 -2.24,5 -5,5 -2.76,0 -5,-2.24 -5,-5 0,-2.76 2.24,-5 5,-5 2.76,0 5,2.24 5,5 z"
         style="fill:#c80000;fill-rule:evenodd;stroke:#c80000;stroke-width:1pt"
         transform="matrix(0.2,0,0,0.2,1.48,0.2)"
         inkscape:connector-curvature="0" />
    </marker>
    <marker
       inkscape:stockid="DotSa"
       orient="auto"
       refY="0"
       refX="0"
       id="DotSa-31"
       style="overflow:visible">
      <path
         id="path3779-2"
         d="m -2.5,-1 c 0,2.76 -2.24,5 -5,5 -2.76,0 -5,-2.24 -5,-5 0,-2.76 2.24,-5 5,-5 2.76,0 5,2.24 5,5 z"
         style="fill:#c80000;fill-rule:evenodd;stroke:#c80000;stroke-width:1pt"
         transform="matrix(0.2,0,0,0.2,1.48,0.2)"
         inkscape:connector-curvature="0" />
    </marker>
    <marker
       inkscape:stockid="DotSP"
       orient="auto"
       refY="0"
       refX="0"
       id="DotSP-6"
       style="overflow:visible">
      <path
         id="path3782-1"
         d="m -2.5,-1 c 0,2.76 -2.24,5 -5,5 -2.76,0 -5,-2.24 -5,-5 0,-2.76 2.24,-5 5,-5 2.76,0 5,2.24 5,5 z"
         style="fill:#c80000;fill-rule:evenodd;stroke:#c80000;stroke-width:1pt"
         transform="matrix(0.2,0,0,0.2,1.48,0.2)"
         inkscape:connector-curvature="0" />
    </marker>
    <marker
       inkscape:stockid="DotSa"
       orient="auto"
       refY="0"
       refX="0"
       id="DotSa-0"
       style="overflow:visible">
      <path
         id="path3779-4"
         d="m -2.5,-1 c 0,2.76 -2.24,5 -5,5 -2.76,0 -5,-2.24 -5,-5 0,-2.76 2.24,-5 5,-5 2.76,0 5,2.24 5,5 z"
         style="fill:#c80000;fill-rule:evenodd;stroke:#c80000;stroke-width:1pt"
         transform="matrix(0.2,0,0,0.2,1.48,0.2)"
         inkscape:connector-curvature="0" />
    </marker>
    <marker
       inkscape:stockid="DotSP"
       orient="auto"
       refY="0"
       refX="0"
       id="DotSP-1"
       style="overflow:visible">
      <path
         id="path3782-9"
         d="m -2.5,-1 c 0,2.76 -2.24,5 -5,5 -2.76,0 -5,-2.24 -5,-5 0,-2.76 2.24,-5 5,-5 2.76,0 5,2.24 5,5 z"
         style="fill:#c80000;fill-rule:evenodd;stroke:#c80000;stroke-width:1pt"
         transform="matrix(0.2,0,0,0.2,1.48,0.2)"
         inkscape:connector-curvature="0" />
    </marker>
    <marker
       inkscape:stockid="DotSa"
       orient="auto"
       refY="0"
       refX="0"
       id="DotSa-34"
       style="overflow:visible">
      <path
         id="path3779-9"
         d="m -2.5,-1 c 0,2.76 -2.24,5 -5,5 -2.76,0 -5,-2.24 -5,-5 0,-2.76 2.24,-5 5,-5 2.76,0 5,2.24 5,5 z"
         style="fill:#c80000;fill-rule:evenodd;stroke:#c80000;stroke-width:1pt"
         transform="matrix(0.2,0,0,0.2,1.48,0.2)"
         inkscape:connector-curvature="0" />
    </marker>
    <marker
       inkscape:stockid="DotSP"
       orient="auto"
       refY="0"
       refX="0"
       id="DotSP-9"
       style="overflow:visible">
      <path
         id="path3782-8"
         d="m -2.5,-1 c 0,2.76 -2.24,5 -5,5 -2.76,0 -5,-2.24 -5,-5 0,-2.76 2.24,-5 5,-5 2.76,0 5,2.24 5,5 z"
         style="fill:#c80000;fill-rule:evenodd;stroke:#c80000;stroke-width:1pt"
         transform="matrix(0.2,0,0,0.2,1.48,0.2)"
         inkscape:connector-curvature="0" />
    </marker>
    <marker
       style="overflow:visible"
       id="StopLo"
       refX="0.0"
       refY="0.0"
       orient="auto"
       inkscape:stockid="StopLo">
      <path
         transform="scale(0.8)"
         style="stroke-width:1.0pt;fill-rule:evenodd;stroke:#c80000;fill-opacity:0.75000000;fill:none"
         d="M 0.0,5.65 L 0.0,-5.65"
         id="path5907" />
    </marker>
    <marker
       inkscape:stockid="DotSPj"
       orient="auto"
       refY="0.0"
       refX="0.0"
       id="DotSPj"
       style="overflow:visible">
      <path
         id="path5910"
         d="M -2.5,-1.0 C -2.5,1.7600000 -4.7400000,4.0 -7.5,4.0 C -10.260000,4.0 -12.5,1.7600000 -12.5,-1.0 C -12.5,-3.7600000 -10.260000,-6.0 -7.5,-6.0 C -4.7400000,-6.0 -2.5,-3.7600000 -2.5,-1.0 z "
         style="fill-rule:evenodd;stroke:#c80000;stroke-width:1.0pt;fill:#c80000"
         transform="scale(0.2) translate(7.4, 1)" />
    </marker>
    <marker
       inkscape:stockid="DotSal"
       orient="auto"
       refY="0.0"
       refX="0.0"
       id="DotSal"
       style="overflow:visible">
      <path
         id="path5913"
         d="M -2.5,-1.0 C -2.5,1.7600000 -4.7400000,4.0 -7.5,4.0 C -10.260000,4.0 -12.5,1.7600000 -12.5,-1.0 C -12.5,-3.7600000 -10.260000,-6.0 -7.5,-6.0 C -4.7400000,-6.0 -2.5,-3.7600000 -2.5,-1.0 z "
         style="fill-rule:evenodd;stroke:#c80000;stroke-width:1.0pt;fill:#c80000"
         transform="scale(0.2) translate(7.4, 1)" />
    </marker>
    <marker
       style="overflow:visible"
       id="StopLz"
       refX="0.0"
       refY="0.0"
       orient="auto"
       inkscape:stockid="StopLz">
      <path
         transform="scale(0.8)"
         style="stroke-width:1.0pt;fill-rule:evenodd;stroke:#c80000;fill-opacity:0.75000000;fill:none"
         d="M 0.0,5.65 L 0.0,-5.65"
         id="path5916" />
    </marker>
  </defs>
  <metadata
     id="metadata2893">
    <rdf:RDF>
      <cc:Work
         rdf:about="">
        <dc:format>image/svg+xml</dc:format>
        <dc:type
           rdf:resource="http://purl.org/dc/dcmitype/StillImage" />
        <dc:title />
      </cc:Work>
    </rdf:RDF>
  </metadata>
  <g
     id="layer1"
     inkscape:label="Layer 1"
     inkscape:groupmode="layer">
    <g
       id="g2416"
       transform="translate(-2.2893027,-5.7236442)" />
    <rect
       style="fill:#ffffff;stroke:#000000;stroke-width:3;stroke-miterlimit:4;stroke-opacity:1;stroke-dasharray:none;fill-opacity:1"
       id="rect3762-8"
       width="19.888403"
       height="19.888403"
       x="1.3017927"
       y="1.3017927" />
    <rect
       style="fill:#ffffff;stroke:#000000;stroke-width:3;stroke-miterlimit:4;stroke-opacity:1;stroke-dasharray:none;fill-opacity:1"
       id="rect3762-8-6"
       width="19.888403"
       height="19.888403"
       x="26.809805"
       y="26.809805" />
    <path
       style="stroke-linejoin:miter;marker-end:url(#DotSPj);stroke-opacity:1;marker-start:url(#StopLo);stroke-dashoffset:1.5;stroke:#c80000;stroke-linecap:butt;stroke-miterlimit:4;stroke-dasharray:3,3;stroke-width:3;fill:none"
       d="m 27.177894,27.177894 9.576112,9.576112"
       id="path3031-0"
       inkscape:connector-curvature="0"
       sodipodi:nodetypes="cc" />
    <path
       style="stroke-linejoin:miter;marker-end:url(#StopLz);stroke-opacity:1;marker-start:url(#DotSal);stroke-dashoffset:0;stroke:#c80000;stroke-linecap:butt;stroke-miterlimit:4;stroke-dasharray:3,3;stroke-width:3;fill:none"
       d="m 11.245994,11.245994 9.491258,9.491258"
       id="path3031"
       inkscape:connector-curvature="0"
       sodipodi:nodetypes="cc" />
  </g>
</svg>
