<?xml version="1.0" encoding="UTF-8" standalone="no"?>
<!-- Created with Inkscape (http://www.inkscape.org/) -->
<svg id="svg2888" xmlns:rdf="http://www.w3.org/1999/02/22-rdf-syntax-ns#" xmlns="http://www.w3.org/2000/svg" xmlns:osb="http://www.openswatchbook.org/uri/2009/osb" height="48px" width="48px" version="1.1" xmlns:cc="http://creativecommons.org/ns#" xmlns:dc="http://purl.org/dc/elements/1.1/">
 <defs id="defs2890">
  <marker id="DotSa" refY="0.0" refX="0.0" orient="auto" overflow="visible">
   <path id="path3779" d="m-2.5-1c0 2.76-2.24 5-5 5s-5-2.24-5-5 2.24-5 5-5 5 2.24 5 5z" fill-rule="evenodd" transform="scale(.2) translate(7.4 1)" stroke="#c80000" stroke-width="1pt" fill="#c80000"/>
  </marker>
  <marker id="DotSP" refY="0.0" refX="0.0" orient="auto" overflow="visible">
   <path id="path3782" d="m-2.5-1c0 2.76-2.24 5-5 5s-5-2.24-5-5 2.24-5 5-5 5 2.24 5 5z" fill-rule="evenodd" transform="scale(.2) translate(7.4 1)" stroke="#c80000" stroke-width="1pt" fill="#c80000"/>
  </marker>
 </defs>
 <metadata id="metadata2893">
  <rdf:RDF>
   <cc:Work rdf:about="">
    <dc:format>image/svg+xml</dc:format>
    <dc:type rdf:resource="http://purl.org/dc/dcmitype/StillImage"/>
    <dc:title/>
   </cc:Work>
  </rdf:RDF>
 </metadata>
 <g id="layer1" stroke-width="3">
  <rect id="rect3762-8" height="19.888" width="19.888" stroke="#000" y="1.3018" x="1.3018" fill="#fff"/>
  <rect id="rect3762-8-6" height="19.888" width="19.888" stroke="#000" y="26.81" x="26.81" fill="#fff"/>
  <path id="path3031" marker-end="url(#DotSP)" d="m11.246 11.246 25.508 25.508" marker-start="url(#DotSa)" stroke-dashoffset="1.5" stroke="#c80000" stroke-dasharray="3,3" fill="none"/>
 </g>
</svg>
