<?xml version="1.0" encoding="UTF-8" standalone="no"?>
<svg
   xmlns:dc="http://purl.org/dc/elements/1.1/"
   xmlns:cc="http://creativecommons.org/ns#"
   xmlns:rdf="http://www.w3.org/1999/02/22-rdf-syntax-ns#"
   xmlns:svg="http://www.w3.org/2000/svg"
   xmlns="http://www.w3.org/2000/svg"
   xmlns:xlink="http://www.w3.org/1999/xlink"
   xmlns:sodipodi="http://sodipodi.sourceforge.net/DTD/sodipodi-0.dtd"
   xmlns:inkscape="http://www.inkscape.org/namespaces/inkscape"
   height="48"
   version="1.1"
   viewBox="0 0 48 48"
   width="48"
   id="svg2"
   inkscape:version="0.91 r13725"
   sodipodi:docname="1441313126_editor_trash_delete_recycle_bin.svg">
  <metadata
     id="metadata17">
    <rdf:RDF>
      <cc:Work
         rdf:about="">
        <dc:format>image/svg+xml</dc:format>
        <dc:type
           rdf:resource="http://purl.org/dc/dcmitype/StillImage" />
        <dc:title></dc:title>
      </cc:Work>
    </rdf:RDF>
  </metadata>
  <sodipodi:namedview
     pagecolor="#ffffff"
     bordercolor="#666666"
     borderopacity="1"
     objecttolerance="10"
     gridtolerance="10"
     guidetolerance="10"
     inkscape:pageopacity="0"
     inkscape:pageshadow="2"
     inkscape:window-width="1920"
     inkscape:window-height="1137"
     id="namedview15"
     showgrid="false"
     inkscape:zoom="7.2555305"
     inkscape:cx="15.704885"
     inkscape:cy="8.194724"
     inkscape:window-x="-8"
     inkscape:window-y="-8"
     inkscape:window-maximized="1"
     inkscape:current-layer="svg2" />
  <defs
     id="defs6">
    <path
       d="m 0.50120357,1.9601551 c 0,0 -0.50120285276995,0 -0.50120357,1 -4.1525821e-7,1 0.50120357,1 0.50120357,1 l 17.99759243,0 c 0,0 0.501204,0 0.501204,-1 0,-1 -0.501204,-1 -0.501204,-1 l -17.99759243,0 0,0 z m 0.47255132,3 0.99898101,0 2.001019,16.9999999 11.0000001,0 2,-16.9999999 1,0 -2,17.9999999 -13.0000001,0 L 0.97375489,4.9601551 Z M 7.9737549,0.96015511 c -1,0 -1,0.99999999 -1,0.99999999 l 5.0000001,0 c 0,0 0,-0.99999999 -1,-0.99999999 l -3.0000001,0 0,0 z m -2,19.99999989 1,0 -1,-16.0371093 -1,0 1,16.0371093 z m 7.0000001,-16.0371093 -1,16.0371093 1,0 1,-16.0371093 -1,0 0,0 z m -4.0000001,0 0,16.0371093 1,0 0,-16.0371093 -1,0 0,0 z"
       id="path-1"
       inkscape:connector-curvature="0" />
    <marker
       style="overflow:visible"
       id="Arrow2MstartA"
       refX="0"
       refY="0"
       orient="auto"
       inkscape:stockid="Arrow2MstartA">
      <path
         inkscape:connector-curvature="0"
         transform="scale(0.6,0.6)"
         d="M 8.7185878,4.0337352 -2.2072895,0.01601326 8.7185884,-4.0017078 c -1.7454984,2.3720609 -1.7354408,5.6174519 -6e-7,8.035443 z"
         style="fill:#3139ae;fill-rule:evenodd;stroke:#3139ae;stroke-width:0.625;stroke-linejoin:round"
         id="path7167" />
    </marker>
    <marker
       inkscape:stockid="DotSa"
       orient="auto"
       refY="0"
       refX="0"
       id="DotSa"
       style="overflow:visible">
      <path
         inkscape:connector-curvature="0"
         id="path7170"
         d="m -2.5,-1 c 0,2.76 -2.24,5 -5,5 -2.76,0 -5,-2.24 -5,-5 0,-2.76 2.24,-5 5,-5 2.76,0 5,2.24 5,5 z"
         style="fill:#3139ae;fill-rule:evenodd;stroke:#3139ae;stroke-width:1pt"
         transform="matrix(0.2,0,0,0.2,1.48,0.2)" />
    </marker>
  </defs>
  <g
     id="miu"
     transform="matrix(1.6995557,0,0,1.6995557,13.616208,5.5743701)"
     style="fill:none;fill-rule:evenodd;stroke:none;stroke-width:1">
    <g
       id="editor_trash_delete_recycle_bin_outline_stroke">
      <use
         xlink:href="#path-1"
         id="use11"
         style="fill:#000000;fill-rule:evenodd"
         x="0"
         y="0"
         width="100%"
         height="100%" />
      <use
         xlink:href="#path-1"
         id="use13"
         style="fill:none"
         x="0"
         y="0"
         width="100%"
         height="100%" />
    </g>
  </g>
  <path
     style="fill:none;stroke:#3139ae;stroke-width:1.2546742;stroke-linecap:butt;stroke-linejoin:miter;stroke-miterlimit:4;stroke-dasharray:none;stroke-opacity:1;marker-start:url(#Arrow2MstartA);marker-end:url(#DotSa)"
     d="M 26.443094,17.425016 C 25.477959,2.8123557 18.722021,-1.8776651 7.1404146,6.9441916"
     id="path3916"
     inkscape:connector-curvature="0"
     sodipodi:nodetypes="cc" />
  <g
     id="g7570"
     transform="matrix(0.96513407,0,0,0.96513407,1.4438609,0.16168962)">
    <circle
       r="3"
       cy="1"
       cx="-9"
       id="path4555"
       style="fill:#ffffff;fill-opacity:1;stroke:#000000"
       transform="matrix(0,1.2943055,-1.2943055,0,6.88767,39.481867)" />
    <path
       style="fill:none;stroke:#000000;stroke-width:1.12090135px;stroke-linecap:butt;stroke-linejoin:miter;stroke-opacity:1"
       d="m 9.476281,11.289977 -7.765832,0"
       id="path4560"
       inkscape:connector-curvature="0" />
    <circle
       r="3"
       cy="1"
       cx="-9"
       id="path4555-9"
       style="fill:#000000;fill-opacity:1;stroke:none"
       transform="matrix(0,0.43143513,-0.43143513,0,6.0248,31.716035)" />
    <path
       inkscape:connector-curvature="0"
       id="path3794-6-9"
       d="m 5.269789,32.7584 0,6.96854 0.647153,0 0,-6.96854 -0.647153,0 z"
       style="color:#000000;font-style:normal;font-variant:normal;font-weight:normal;font-stretch:normal;font-size:medium;line-height:normal;font-family:Sans;-inkscape-font-specification:Sans;text-indent:0;text-align:start;text-decoration:none;text-decoration-line:none;letter-spacing:normal;word-spacing:normal;text-transform:none;direction:ltr;block-progression:tb;writing-mode:lr-tb;baseline-shift:baseline;text-anchor:start;display:inline;overflow:visible;visibility:visible;fill:#000000;fill-opacity:1;stroke:none;stroke-width:1px;marker:none;enable-background:accumulate" />
    <path
       sodipodi:nodetypes="cccc"
       inkscape:connector-curvature="0"
       id="path4456-1-6"
       d="m 5.593366,43.536491 -1.294306,-3.882916 2.58861,0 z"
       style="fill:#000000;fill-rule:evenodd;stroke:none" />
    <path
       inkscape:connector-curvature="0"
       id="path3794-6-9-6"
       d="m 5.269789,12.049513 0,6.96854 0.647153,0 0,-6.96854 -0.647153,0 z"
       style="color:#000000;font-style:normal;font-variant:normal;font-weight:normal;font-stretch:normal;font-size:medium;line-height:normal;font-family:Sans;-inkscape-font-specification:Sans;text-indent:0;text-align:start;text-decoration:none;text-decoration-line:none;letter-spacing:normal;word-spacing:normal;text-transform:none;direction:ltr;block-progression:tb;writing-mode:lr-tb;baseline-shift:baseline;text-anchor:start;display:inline;overflow:visible;visibility:visible;fill:#000000;fill-opacity:1;stroke:none;stroke-width:1px;marker:none;enable-background:accumulate" />
    <path
       sodipodi:nodetypes="cccc"
       inkscape:connector-curvature="0"
       id="path4456-1-6-5"
       d="m 5.593366,22.827605 -1.294306,-3.882917 2.58861,0 z"
       style="fill:#000000;fill-rule:evenodd;stroke:none" />
    <path
       style="fill:none;stroke:#000000;stroke-width:1.12090135px;stroke-linecap:butt;stroke-linejoin:miter;stroke-opacity:1"
       d="m 9.476281,44.27519 -7.765832,0"
       id="path4560-6"
       inkscape:connector-curvature="0" />
  </g>
</svg>
