<?xml version="1.0" encoding="UTF-8" standalone="no"?>
<!-- Generator: Adobe Illustrator 15.0.2, SVG Export Plug-In . SVG Version: 6.00 Build 0)  -->

<svg
   xmlns:dc="http://purl.org/dc/elements/1.1/"
   xmlns:cc="http://creativecommons.org/ns#"
   xmlns:rdf="http://www.w3.org/1999/02/22-rdf-syntax-ns#"
   xmlns:svg="http://www.w3.org/2000/svg"
   xmlns="http://www.w3.org/2000/svg"
   xmlns:sodipodi="http://sodipodi.sourceforge.net/DTD/sodipodi-0.dtd"
   xmlns:inkscape="http://www.inkscape.org/namespaces/inkscape"
   version="1.1"
   id="Layer_1"
   x="0px"
   y="0px"
   width="48"
   height="48"
   viewBox="0 0 48 48.000001"
   enable-background="new 0 0 512 552.951"
   xml:space="preserve"
   inkscape:version="0.91 r13725"
   sodipodi:docname="son-scenario-reset.svg"><metadata
     id="metadata9"><rdf:RDF><cc:Work
         rdf:about=""><dc:format>image/svg+xml</dc:format><dc:type
           rdf:resource="http://purl.org/dc/dcmitype/StillImage" /><dc:title /></cc:Work></rdf:RDF></metadata><defs
     id="defs7" /><sodipodi:namedview
     pagecolor="#ffffff"
     bordercolor="#666666"
     borderopacity="1"
     objecttolerance="10"
     gridtolerance="10"
     guidetolerance="10"
     inkscape:pageopacity="0"
     inkscape:pageshadow="2"
     inkscape:window-width="1920"
     inkscape:window-height="1137"
     id="namedview5"
     showgrid="false"
     inkscape:zoom="6.828815"
     inkscape:cx="-2.670593"
     inkscape:cy="14.203864"
     inkscape:window-x="-8"
     inkscape:window-y="-8"
     inkscape:window-maximized="1"
     inkscape:current-layer="Layer_1" /><path
     d="m 24.000214,48.372618 c -16.0100557,4.669088 -8.005028,2.334544 0,0 z M 26.002287,25.357399 13.994059,13.349857 26.002287,1.3423168 l 0,8.1150914 c 9.004431,0.9955638 16.00924,8.6303648 16.00924,17.9013778 0,9.946838 -8.063887,18.011898 -18.011313,18.011898 -9.947421,0 -18.0113087,-8.06506 -18.0113087,-18.011898 0,-3.559129 1.0323976,-6.877674 2.813627,-9.671564 l 5.9105457,3.760919 c -1.088787,1.707741 -1.720149,3.735122 -1.720149,5.910546 0,6.078527 4.928176,11.00592 11.007189,11.00592 6.079115,0 11.007677,-4.927393 11.007677,-11.00592 0,-5.395858 -3.883167,-9.884395 -9.005609,-10.825627 l 0,8.824339 z"
     id="path3"
     inkscape:connector-curvature="0"
     style="fill:#000000;fill-opacity:1"
     sodipodi:nodetypes="ccccccsssccsssccc" /></svg>