<?xml version="1.0" encoding="UTF-8" standalone="no"?>
<!-- Created with Inkscape (http://www.inkscape.org/) -->
<svg id="svg2888" xmlns:rdf="http://www.w3.org/1999/02/22-rdf-syntax-ns#" xmlns="http://www.w3.org/2000/svg" height="48px" width="48px" version="1.1" xmlns:cc="http://creativecommons.org/ns#" xmlns:dc="http://purl.org/dc/elements/1.1/">
 <defs id="defs2890">
  <marker id="TriangleOutM" refY="0.0" refX="0.0" orient="auto" overflow="visible">
   <path id="path4401" d="m5.77 0l-8.65 5v-10l8.65 5z" fill-rule="evenodd" transform="scale(.4)" stroke="#000" stroke-width="1pt"/>
  </marker>
 </defs>
 <metadata id="metadata2893">
  <rdf:RDF>
   <cc:Work rdf:about="">
    <dc:format>image/svg+xml</dc:format>
    <dc:type rdf:resource="http://purl.org/dc/dcmitype/StillImage"/>
    <dc:title/>
   </cc:Work>
  </rdf:RDF>
 </metadata>
 <g id="layer1" stroke="#000">
  <rect id="rect6910-1" height="36.776" width="33.876" stroke-linecap="round" y="2.2821" x="2.4025" stroke-width="2.2808" fill="#fff"/>
  <rect id="rect6910-6" stroke-linejoin="round" height="14.334" width="16.338" stroke-linecap="round" y="7.6213" x="8.2166" stroke-width="1.1443" fill="#a7a7a7"/>
  <path id="path6434-15-1-2-8" stroke-linejoin="round" d="m-24.244-24.529a8.4853 24.648 0 1 1 -16.971 0 8.4853 24.648 0 1 1 16.971 0z" transform="matrix(0 .98658 -.36190 0 14.796 56.671)" stroke-dashoffset="21.755" stroke-linecap="round" stroke-width="2.1095" fill="#a7a7a7"/>
  <rect id="rect6910-1-5" stroke-linejoin="round" height="19.119" width="21.699" stroke-linecap="round" y="26.453" x="24.815" stroke-width="1.5229" fill="#fff"/>
  <path id="path8785" stroke-linejoin="round" marker-end="url(#TriangleOutM)" d="m36.882 10.838h6.194v10.26" stroke-width="2" fill="none"/>
  <rect id="rect6910-1-1" height="11.206" width="11.021" stroke-linecap="round" y="32.254" x="31.551" stroke-width=".71810" fill="#fff"/>
  <rect id="rect6910-6-7" stroke-linejoin="round" height="4.2596" width="5.3192" stroke-linecap="round" y="34.122" x="33.439" stroke-width=".35595" fill="#a7a7a7"/>
  <path id="path6434-15-1-2-8-4" stroke-linejoin="round" d="m-24.244-24.529a8.4853 24.648 0 1 1 -16.971 0 8.4853 24.648 0 1 1 16.971 0z" transform="matrix(0 .29318 -.11783 0 35.581 48.698)" stroke-dashoffset="21.755" stroke-linecap="round" stroke-width="2.1095" fill="#a7a7a7"/>
 </g>
</svg>
