<?xml version="1.0" encoding="UTF-8" standalone="no"?>
<svg
   xmlns:dc="http://purl.org/dc/elements/1.1/"
   xmlns:cc="http://creativecommons.org/ns#"
   xmlns:rdf="http://www.w3.org/1999/02/22-rdf-syntax-ns#"
   xmlns:svg="http://www.w3.org/2000/svg"
   xmlns="http://www.w3.org/2000/svg"
   xmlns:sodipodi="http://sodipodi.sourceforge.net/DTD/sodipodi-0.dtd"
   xmlns:inkscape="http://www.inkscape.org/namespaces/inkscape"
   height="48"
   width="48"
   id="svg2"
   version="1.1"
   inkscape:version="0.91 r13725"
   sodipodi:docname="son-scenario-start.svg">
  <metadata
     id="metadata10">
    <rdf:RDF>
      <cc:Work
         rdf:about="">
        <dc:format>image/svg+xml</dc:format>
        <dc:type
           rdf:resource="http://purl.org/dc/dcmitype/StillImage" />
      </cc:Work>
    </rdf:RDF>
  </metadata>
  <defs
     id="defs8" />
  <sodipodi:namedview
     pagecolor="#ffffff"
     bordercolor="#666666"
     borderopacity="1"
     objecttolerance="10"
     gridtolerance="10"
     guidetolerance="10"
     inkscape:pageopacity="0"
     inkscape:pageshadow="2"
     inkscape:window-width="1920"
     inkscape:window-height="1137"
     id="namedview6"
     showgrid="false"
     inkscape:zoom="7.375"
     inkscape:cx="39.947833"
     inkscape:cy="16.342523"
     inkscape:window-x="-8"
     inkscape:window-y="-8"
     inkscape:window-maximized="1"
     inkscape:current-layer="svg2" />
  <path
     d="m 20.569039,10.697191 c 0.0224,2.458935 1.404739,4.563487 3.414391,5.681283 -0.01834,0.297067 -0.04158,0.587733 -0.03876,0.897518 0.06164,6.766903 -5.052132,13.235403 -11.433398,15.636055 -1.228558,-1.39755 -3.0175477,-2.286589 -5.0233288,-2.26844 -3.6602316,0.03312 -6.60388236,3.020752 -6.57065105,6.668811 0.0332311,3.648057 3.03082305,6.581928 6.69105495,6.548807 2.4461109,-0.02213 4.5497679,-1.375639 5.6828439,-3.356105 l 21.729976,-0.196632 c 1.167364,1.959648 3.293725,3.274878 5.741442,3.252728 3.658624,-0.03311 6.603881,-3.020752 6.570649,-6.66881 -0.03323,-3.648058 -3.03243,-6.581914 -6.691053,-6.548807 -2.447718,0.02215 -4.54977,1.375639 -5.681238,3.356088 l -11.929376,0.107948 c 4.572539,-4.38682 7.600188,-10.415251 7.543925,-16.591645 -0.0029,-0.329147 -0.02815,-0.600011 -0.04054,-0.896799 1.980766,-1.160362 3.318115,-3.289523 3.295774,-5.742005 -0.03322,-3.6464631 -3.032429,-6.5819127 -6.691055,-6.5488063 -3.660229,0.03312 -6.603867,3.0223465 -6.570649,6.6688113 z M 44.01783,36.922407 c 0.0166,1.823203 -1.452776,3.317818 -3.285326,3.3344 -1.829285,0.01654 -3.328918,-1.451196 -3.345526,-3.274399 -0.01665,-1.828057 1.456039,-3.317849 3.285324,-3.334401 1.83255,-0.01658 3.328876,1.446342 3.345528,3.2744 z m -33.154262,0.300009 c 0.0166,1.823202 -1.4511697,3.317803 -3.2853254,3.3344 -1.834156,0.01659 -3.3289181,-1.451196 -3.3455263,-3.274399 -0.016653,-1.828056 1.4511684,-3.317805 3.2853244,-3.334402 1.8341564,-0.01659 3.3288753,1.446343 3.3455273,3.274401 z m 19.65175,-26.615228 c 0.0166,1.823204 -1.452775,3.317818 -3.285326,3.334402 -1.834156,0.0166 -3.328919,-1.451196 -3.345526,-3.274401 -0.01664,-1.8264625 1.451169,-3.317811 3.285325,-3.334408 1.83255,-0.016582 3.32889,1.4479446 3.345527,3.274407 z"
     id="path4"
     inkscape:connector-curvature="0"
     style="fill:#008882;fill-opacity:1" />
</svg>
