<?xml version="1.0" encoding="UTF-8" standalone="no"?>
<svg id="svg2" xmlns:rdf="http://www.w3.org/1999/02/22-rdf-syntax-ns#" xmlns="http://www.w3.org/2000/svg" height="48" width="48" version="1.1" xmlns:cc="http://creativecommons.org/ns#" xmlns:xlink="http://www.w3.org/1999/xlink" viewBox="0 0 48 48" xmlns:dc="http://purl.org/dc/elements/1.1/">
 <metadata id="metadata17">
  <rdf:RDF>
   <cc:Work rdf:about="">
    <dc:format>image/svg+xml</dc:format>
    <dc:type rdf:resource="http://purl.org/dc/dcmitype/StillImage"/>
    <dc:title/>
   </cc:Work>
  </rdf:RDF>
 </metadata>
 <defs id="defs6">
  <path id="path-1" d="m0.5012 1.9602s-0.5012 0-0.5012 1c-4.1526e-7 1 0.5012 1 0.5012 1h17.998s0.5012 0 0.5012-1-0.5012-1-0.5012-1h-17.998zm0.47255 3h0.99898l2.001 17h11l2-17h1l-2 18h-13l-2.0002-18zm7-4c-1 0-1 1-1 1h5s0-1-1-1h-3zm-2 20h1l-1-16.037h-1l1 16.037zm7-16.037-1 16.037h1l1-16.037h-1zm-4 0v16.037h1v-16.037h-1z"/>
  <marker id="Arrow2MstartA" refY="0" refX="0" orient="auto" overflow="visible">
   <path id="path7167" stroke-linejoin="round" d="m8.7186 4.0337-10.926-4.0177 10.926-4.0177c-1.7455 2.3721-1.7354 5.6175-6e-7 8.0354z" fill-rule="evenodd" transform="scale(.6)" stroke="#3139ae" stroke-width=".625" fill="#3139ae"/>
  </marker>
  <marker id="DotSa" refY="0" refX="0" orient="auto" overflow="visible">
   <path id="path7170" d="m-2.5-1c0 2.76-2.24 5-5 5s-5-2.24-5-5 2.24-5 5-5 5 2.24 5 5z" fill-rule="evenodd" transform="matrix(.2 0 0 .2 1.48 .2)" stroke="#3139ae" stroke-width="1pt" fill="#3139ae"/>
  </marker>
 </defs>
 <g id="miu" fill="none" transform="matrix(1.6996 0 0 1.6996 13.616 5.5744)">
  <g id="editor_trash_delete_recycle_bin_outline_stroke">
   <use id="use11" fill-rule="evenodd" xlink:href="#path-1" height="100%" width="100%" y="0" x="0" fill="#000000"/>
   <use id="use13" xlink:href="#path-1" height="100%" width="100%" y="0" x="0" fill="none"/>
  </g>
 </g>
 <path id="path3916" marker-end="url(#DotSa)" d="m26.443 17.425c-0.965-14.613-7.721-19.303-19.303-10.481" marker-start="url(#Arrow2MstartA)" stroke="#3139ae" stroke-width="1.2547" fill="none"/>
 <g id="g7570" transform="matrix(.96513 0 0 .96513 1.4439 .16169)">
  <circle id="path4555" transform="matrix(0 1.2943 -1.2943 0 6.8877 39.482)" stroke="#000" cy="1" cx="-9" r="3" fill="#fff"/>
  <path id="path4560" d="m9.4763 11.29h-7.7658" stroke="#000" stroke-width="1.1209px" fill="none"/>
  <circle id="path4555-9" transform="matrix(0 .43144 -.43144 0 6.0248 31.716)" cy="1" cx="-9" r="3"/>
  <path id="path3794-6-9" style="color:#000000;text-indent:0;block-progression:tb;text-decoration-line:none;text-transform:none" d="m5.2698 32.758v6.9685h0.64715v-6.9685h-0.64715z"/>
  <path id="path4456-1-6" d="m5.5934 43.536-1.2943-3.8829h2.5886z" fill-rule="evenodd"/>
  <path id="path3794-6-9-6" style="color:#000000;text-indent:0;block-progression:tb;text-decoration-line:none;text-transform:none" d="m5.2698 12.05v6.9685h0.64715v-6.9685h-0.64715z"/>
  <path id="path4456-1-6-5" d="m5.5934 22.828-1.2943-3.8829h2.5886z" fill-rule="evenodd"/>
  <path id="path4560-6" d="m9.4763 44.275h-7.7658" stroke="#000" stroke-width="1.1209px" fill="none"/>
 </g>
</svg>
