<?xml version="1.0" encoding="UTF-8" standalone="no"?>
<!-- Created with Inkscape (http://www.inkscape.org/) -->
<svg id="svg2888" xmlns:rdf="http://www.w3.org/1999/02/22-rdf-syntax-ns#" xmlns="http://www.w3.org/2000/svg" height="48px" width="48px" version="1.1" xmlns:cc="http://creativecommons.org/ns#" xmlns:dc="http://purl.org/dc/elements/1.1/">
 <metadata id="metadata2893">
  <rdf:RDF>
   <cc:Work rdf:about="">
    <dc:format>image/svg+xml</dc:format>
    <dc:type rdf:resource="http://purl.org/dc/dcmitype/StillImage"/>
    <dc:title/>
   </cc:Work>
  </rdf:RDF>
 </metadata>
 <g id="layer1">
  <g id="g3144" transform="matrix(0 -1 1 0 .050892 48.622)">
   <rect id="rect3762" height="37" width="37" stroke="#000" y="5.7857" x="5.7857" stroke-width="3" fill="#fff"/>
   <path id="path3137" d="m42.816 24.457h-36.959" stroke="#000" stroke-width="3.2079px" fill="none"/>
   <path id="path3060" d="m30.564 16.46c0 2.1751-1.7331 3.9383-3.871 3.9383s-3.871-1.7632-3.871-3.9383 1.7331-3.9383 3.871-3.9383 3.871 1.7632 3.871 3.9383z" transform="matrix(1.1652 0 0 1.188 -7.3386 -4.4415)" stroke-width="3.089"/>
   <path id="path3060-2" d="m30.564 16.46c0 2.1751-1.7331 3.9383-3.871 3.9383s-3.871-1.7632-3.871-3.9383 1.7331-3.9383 3.871-3.9383 3.871 1.7632 3.871 3.9383z" transform="matrix(1.1652 0 0 1.188 -7.204 14.375)" stroke-width="3.089"/>
  </g>
 </g>
</svg>
