<?xml version="1.0" encoding="UTF-8" standalone="no"?>
<!-- Generator: Adobe Illustrator 15.0.2, SVG Export Plug-In . SVG Version: 6.00 Build 0)  -->
<svg id="Layer_1" xmlns:rdf="http://www.w3.org/1999/02/22-rdf-syntax-ns#" xmlns="http://www.w3.org/2000/svg" enable-background="new 0 0 512 552.951" xml:space="preserve" height="48" viewBox="0 0 48 48.000001" width="48" version="1.1" y="0px" x="0px" xmlns:cc="http://creativecommons.org/ns#" xmlns:dc="http://purl.org/dc/elements/1.1/"><metadata id="metadata9"><rdf:RDF><cc:Work rdf:about=""><dc:format>image/svg+xml</dc:format><dc:type rdf:resource="http://purl.org/dc/dcmitype/StillImage"/><dc:title/></cc:Work></rdf:RDF></metadata><path id="path3" d="m24 48.373c-16.01 4.6691-8.005 2.3345 0 0zm2.002-23.016-12.008-12.007 12.008-12.008v8.1151c9.0044 0.99556 16.009 8.6304 16.009 17.901 0 9.9468-8.0639 18.012-18.011 18.012-9.9474 0-18.011-8.0651-18.011-18.012 0-3.5591 1.0324-6.8777 2.8136-9.6716l5.9105 3.7609c-1.0888 1.7077-1.7201 3.7351-1.7201 5.9105 0 6.0785 4.9282 11.006 11.007 11.006 6.0791 0 11.008-4.9274 11.008-11.006 0-5.3959-3.8832-9.8844-9.0056-10.826v8.8243z"/></svg>
