<?xml version="1.0" encoding="UTF-8" standalone="no"?>
<!-- Created with Inkscape (http://www.inkscape.org/) -->
<svg id="svg2888" xmlns:rdf="http://www.w3.org/1999/02/22-rdf-syntax-ns#" xmlns="http://www.w3.org/2000/svg" height="48px" width="48px" version="1.1" xmlns:cc="http://creativecommons.org/ns#" xmlns:dc="http://purl.org/dc/elements/1.1/">
 <metadata id="metadata2893">
  <rdf:RDF>
   <cc:Work rdf:about="">
    <dc:format>image/svg+xml</dc:format>
    <dc:type rdf:resource="http://purl.org/dc/dcmitype/StillImage"/>
    <dc:title/>
   </cc:Work>
  </rdf:RDF>
 </metadata>
 <path id="path3" d="m24.249 1.7195c-12.669 0-22.94 10.272-22.94 22.94 0 12.669 10.272 22.94 22.94 22.94 12.669 0 22.94-10.272 22.94-22.94 0-12.669-10.272-22.94-22.94-22.94zm1.4338 42.94v-2.7948h-2.8675v2.7948c-9.922-0.706-17.861-8.645-18.567-18.566h2.7951v-2.868h-2.7947c0.7057-9.922 8.6446-17.86 18.567-18.566v2.7947h2.8675v-2.7949c9.9216 0.70569 17.861 8.6446 18.566 18.566h-2.7948v2.8675h2.7948c-0.70568 9.9216-8.6446 17.861-18.566 18.566zm9.1207-26.094c0.19607 0.34169 0.07842 0.78132-0.26327 0.98016l-7.5735 4.3713c0.06576 0.24365 0.14983 0.47888 0.14983 0.74206 0 1.585-1.2839 2.8675-2.8675 2.8675s-2.8675-1.2826-2.8675-2.8675l-7.7821-4.4917c-0.68606-0.39769-0.92129-1.2742-0.52503-1.9602 0.39482-0.68892 1.2727-0.92415 1.9588-0.52646l7.8269 4.5198c0.41723-0.23522 0.87371-0.4089 1.389-0.4089 0.80094 0 1.5219 0.33049 2.0429 0.8625l7.5315-4.3518c0.33613-0.19876 0.77576-0.08119 0.98016 0.26328z"/>
</svg>
