<?xml version="1.0" encoding="UTF-8" standalone="no"?>
<!-- Created with Inkscape (http://www.inkscape.org/) -->
<svg id="svg1307" xmlns:rdf="http://www.w3.org/1999/02/22-rdf-syntax-ns#" xmlns="http://www.w3.org/2000/svg" height="48px" width="48px" version="1.1" xmlns:cc="http://creativecommons.org/ns#" xmlns:xlink="http://www.w3.org/1999/xlink" xmlns:dc="http://purl.org/dc/elements/1.1/">
 <metadata id="metadata1312">
  <rdf:RDF>
   <cc:Work rdf:about="">
    <dc:format>image/svg+xml</dc:format>
    <dc:type rdf:resource="http://purl.org/dc/dcmitype/StillImage"/>
    <dc:title/>
    <dc:creator>
     <cc:Agent>
      <dc:title>Lapo Calamandrei</dc:title>
     </cc:Agent>
    </dc:creator>
    <cc:license rdf:resource="http://creativecommons.org/licenses/publicdomain/"/>
    <dc:subject>
     <rdf:Bag>
      <rdf:li>play</rdf:li>
      <rdf:li>media</rdf:li>
      <rdf:li>music</rdf:li>
      <rdf:li>video</rdf:li>
      <rdf:li>player</rdf:li>
     </rdf:Bag>
    </dc:subject>
    <dc:contributor>
     <cc:Agent>
      <dc:title>Jakub Steiner</dc:title>
     </cc:Agent>
    </dc:contributor>
   </cc:Work>
   <cc:License rdf:about="http://creativecommons.org/licenses/publicdomain/">
    <cc:permits rdf:resource="http://creativecommons.org/ns#Reproduction"/>
    <cc:permits rdf:resource="http://creativecommons.org/ns#Distribution"/>
    <cc:permits rdf:resource="http://creativecommons.org/ns#DerivativeWorks"/>
   </cc:License>
  </rdf:RDF>
 </metadata>
 <g id="layer1">
  <g id="g5" transform="matrix(1.8031 0 0 1.8031 2.5899 1.9671)">
   <path id="path7" d="m22.9 17.3-1.9-1.9c0.6-1.4 0.9-2.8 0.9-4.4 0-6.1-4.9-11-11-11-2.8 0-5.6 1.1-7.7 3.2s-3.2 4.9-3.2 7.8c0 6.1 4.9 11 11 11 1.6 0 3.1-0.3 4.4-0.9l1.9 1.9c0.7 0.7 1.7 1.1 2.6 1.1 1 0 2.1-0.4 2.9-1.2 1.5-1.7 1.6-4.1 0.1-5.6zm-11.9 2.7c-5 0-9-4-9-9 0-2.4 0.9-4.7 2.6-6.4s4-2.6 6.4-2.6c5 0 9 4 9 9s-4 9-9 9zm10.4 1.4c-0.8 0.8-2 0.8-2.7 0.1l-1.5-1.5c1.1-0.8 2.1-1.7 2.8-2.8l1.5 1.5c0.7 0.7 0.7 1.9-0.1 2.7z" class="st0"/>
   <path id="path9" d="m12.9 4.3c-1.8-0.5-3.7-0.3-5.3 0.6s-2.8 2.4-3.3 4.2c-0.2 0.5 0.1 1.1 0.7 1.2h0.3c0.4 0 0.8-0.3 1-0.7 0.4-1.3 1.2-2.3 2.4-3 1.2-0.6 2.5-0.8 3.8-0.4 0.5 0.2 1.1-0.2 1.2-0.7s-0.2-1.1-0.8-1.2z" class="st0"/>
  </g>
 </g>
</svg>
