<?xml version="1.0" encoding="UTF-8" standalone="no"?>
<!-- Created with Inkscape (http://www.inkscape.org/) -->
<svg id="svg2888" xmlns:rdf="http://www.w3.org/1999/02/22-rdf-syntax-ns#" xmlns="http://www.w3.org/2000/svg" height="48px" width="48px" version="1.1" xmlns:cc="http://creativecommons.org/ns#" xmlns:dc="http://purl.org/dc/elements/1.1/">
 <metadata id="metadata2893">
  <rdf:RDF>
   <cc:Work rdf:about="">
    <dc:format>image/svg+xml</dc:format>
    <dc:type rdf:resource="http://purl.org/dc/dcmitype/StillImage"/>
    <dc:title/>
   </cc:Work>
  </rdf:RDF>
 </metadata>
 <g id="layer1">
  <g id="g2819">
   <g id="g3170" fill="#0000bd" transform="matrix(10.533 0 0 10.533 -197.6 -52.846)">
    <g id="g3172" stroke-width=".094939" xml:space="preserve" transform="matrix(.068571 0 0 -.068571 -12 36)" stroke="#000" stroke-miterlimit="10.433" fill="#0000bd"><path id="path3174" d="m476.49 416.91-17.69-21.86c-0.39-0.5-0.44-0.61-0.44-0.8 0-0.56 0.44-0.56 1.35-0.56h41.29l4.29 12.41h-1.24c-1.25-3.74-4.59-6.77-8.83-8.22-0.79-0.25-4.23-1.44-11.54-1.44h-21.19l17.3 21.38c0.34 0.43 0.45 0.59 0.45 0.79 0 0.19-0.06 0.25-0.36 0.69l-16.19 22.22h19.74c5.67 0 17.12-0.34 20.62-9.66h1.24l-4.29 11.66h-41.29c-1.35 0-1.39-0.05-1.39-1.59z" stroke-width="0" fill="#0000bd"/></g>
   </g>
  </g>
 </g>
</svg>
