<?xml version="1.0" encoding="UTF-8" standalone="no"?>
<svg id="svg2" xmlns:rdf="http://www.w3.org/1999/02/22-rdf-syntax-ns#" xmlns="http://www.w3.org/2000/svg" height="48" width="48" version="1.1" xmlns:cc="http://creativecommons.org/ns#" xmlns:dc="http://purl.org/dc/elements/1.1/">
 <metadata id="metadata10">
  <rdf:RDF>
   <cc:Work rdf:about="">
    <dc:format>image/svg+xml</dc:format>
    <dc:type rdf:resource="http://purl.org/dc/dcmitype/StillImage"/>
   </cc:Work>
  </rdf:RDF>
 </metadata>
 <path id="path4" d="m20.569 10.697c0.0224 2.4589 1.4047 4.5635 3.4144 5.6813-0.01834 0.29707-0.04158 0.58773-0.03876 0.89752 0.06164 6.7669-5.0521 13.235-11.433 15.636-1.2286-1.3976-3.0175-2.2866-5.0233-2.2684-3.6602 0.03312-6.6039 3.0208-6.5707 6.6688 0.033231 3.6481 3.0308 6.5819 6.6911 6.5488 2.4461-0.02213 4.5498-1.3756 5.6828-3.3561l21.73-0.19663c1.1674 1.9596 3.2937 3.2749 5.7414 3.2527 3.6586-0.03311 6.6039-3.0208 6.5706-6.6688-0.03323-3.6481-3.0324-6.5819-6.6911-6.5488-2.4477 0.02215-4.5498 1.3756-5.6812 3.3561l-11.929 0.10795c4.5725-4.3868 7.6002-10.415 7.5439-16.592-0.0029-0.32915-0.02815-0.60001-0.04054-0.8968 1.9808-1.1604 3.3181-3.2895 3.2958-5.742-0.03322-3.6465-3.0324-6.5819-6.6911-6.5488-3.6602 0.03312-6.6039 3.0223-6.5706 6.6688zm23.449 26.225c0.0166 1.8232-1.4528 3.3178-3.2853 3.3344-1.8293 0.01654-3.3289-1.4512-3.3455-3.2744-0.01665-1.8281 1.456-3.3178 3.2853-3.3344 1.8326-0.01658 3.3289 1.4463 3.3455 3.2744zm-33.154 0.30001c0.0166 1.8232-1.4512 3.3178-3.2853 3.3344-1.8342 0.01659-3.3289-1.4512-3.3455-3.2744-0.016653-1.8281 1.4512-3.3178 3.2853-3.3344 1.8342-0.01659 3.3289 1.4463 3.3455 3.2744zm19.652-26.615c0.0166 1.8232-1.4528 3.3178-3.2853 3.3344-1.8342 0.0166-3.3289-1.4512-3.3455-3.2744-0.01664-1.8265 1.4512-3.3178 3.2853-3.3344 1.8326-0.016582 3.3289 1.4479 3.3455 3.2744z"/>
</svg>
